<?xml version="1.0" encoding="iso-8859-1"?>
<!-- Generator: Adobe Illustrator 19.0.0, SVG Export Plug-In . SVG Version: 6.00 Build 0)  -->
<svg version="1.1" id="Capa_1" xmlns="http://www.w3.org/2000/svg" xmlns:xlink="http://www.w3.org/1999/xlink" x="0px" y="0px"
	 viewBox="0 0 512 512" style="enable-background:new 0 0 512 512;" xml:space="preserve">
<circle style="fill:#EB5E8A;" cx="256" cy="50.994" r="7.211"/>
<path style="fill:#FF98C5;" d="M504.822,220.778c14.055-13.7,6.3-37.57-13.125-40.392l-135.87-19.743
	c-7.713-1.121-14.38-5.965-17.83-12.955L277.235,24.57c-8.686-17.601-33.785-17.601-42.471,0L174,147.689
	c-3.449,6.989-10.117,11.834-17.83,12.955L20.301,180.386c-19.423,2.823-27.179,26.692-13.125,40.392l98.316,95.835
	c5.582,5.44,8.128,13.279,6.811,20.961l-23.209,135.32c-3.318,19.345,16.987,34.097,34.36,24.963l121.526-63.89
	c6.899-3.627,15.141-3.627,22.04,0l121.526,63.89c17.373,9.134,37.678-5.619,34.36-24.963l-23.209-135.32
	c-1.318-7.682,1.229-15.521,6.811-20.961L504.822,220.778z"/>
<g>
	<path style="fill:#3A484A;" d="M190.556,270.188c-4.268,0-7.726-3.459-7.726-7.726v-11.844c0-4.267,3.458-7.726,7.726-7.726
		c4.268,0,7.726,3.459,7.726,7.726v11.844C198.283,266.728,194.824,270.188,190.556,270.188z"/>
	<path style="fill:#3A484A;" d="M321.443,270.188c-4.268,0-7.726-3.459-7.726-7.726v-11.844c0-4.267,3.458-7.726,7.726-7.726
		s7.726,3.459,7.726,7.726v11.844C329.169,266.728,325.711,270.188,321.443,270.188z"/>
	<path style="fill:#3A484A;" d="M256,276.51c-8.525,0-16.532-3.568-21.969-9.788c-2.809-3.213-2.481-8.094,0.732-10.902
		c3.212-2.808,8.094-2.481,10.901,0.732c2.503,2.863,6.27,4.505,10.335,4.505c4.066,0,7.834-1.642,10.336-4.505
		c2.808-3.213,7.689-3.541,10.901-0.732c3.213,2.808,3.542,7.689,0.732,10.902C272.532,272.942,264.524,276.51,256,276.51z"/>
</g>
<g>
	<circle style="fill:#EB5E8A;" cx="256" cy="89.626" r="9.787"/>
	<circle style="fill:#EB5E8A;" cx="256" cy="128.257" r="12.362"/>
	<circle style="fill:#EB5E8A;" cx="55.551" cy="213.01" r="7.211"/>
	<circle style="fill:#EB5E8A;" cx="93.324" cy="221.118" r="9.787"/>
	<circle style="fill:#EB5E8A;" cx="131.1" cy="229.215" r="12.362"/>
	<circle style="fill:#EB5E8A;" cx="144.678" cy="428.153" r="7.211"/>
	<circle style="fill:#EB5E8A;" cx="165.663" cy="395.713" r="9.787"/>
	<circle style="fill:#EB5E8A;" cx="186.638" cy="363.273" r="12.362"/>
	<circle style="fill:#EB5E8A;" cx="456.452" cy="213.01" r="7.211"/>
	<circle style="fill:#EB5E8A;" cx="418.676" cy="221.118" r="9.787"/>
	<circle style="fill:#EB5E8A;" cx="380.899" cy="229.215" r="12.362"/>
	<circle style="fill:#EB5E8A;" cx="367.321" cy="428.153" r="7.211"/>
	<circle style="fill:#EB5E8A;" cx="346.336" cy="395.713" r="9.787"/>
	<circle style="fill:#EB5E8A;" cx="325.362" cy="363.273" r="12.362"/>
</g>
<g>
</g>
<g>
</g>
<g>
</g>
<g>
</g>
<g>
</g>
<g>
</g>
<g>
</g>
<g>
</g>
<g>
</g>
<g>
</g>
<g>
</g>
<g>
</g>
<g>
</g>
<g>
</g>
<g>
</g>
</svg>
